<svg width="325" height="40" fill="none" xmlns="http://www.w3.org/2000/svg">
  <path d="M20 0 5.937 10.227v15.554h8.204v-12.57h11.718v12.57h8.203V10.227L20 0Z" fill="#E1A932"/>
  <path d="M16.484 15.555h7.032V25.78h-7.032V15.555Zm0 12.57h7.032v2.344h-7.032v-2.344Zm-7.031 0h4.688V40H9.453V28.125Zm16.407 0h4.687V40h-4.688V28.125Z" fill="#E1A932"/>
  <path d="M57.722 11.046h3.869l5.182 12.647h.204l5.182-12.648h3.87V28.5h-3.035V16.509h-.162l-4.823 11.94h-2.267l-4.824-11.966h-.162V28.5h-3.034V11.046Zm27.324 17.71c-1.279 0-2.387-.282-3.324-.844-.938-.563-1.665-1.35-2.182-2.36-.512-1.012-.767-2.194-.767-3.546 0-1.353.255-2.537.767-3.554.517-1.017 1.244-1.807 2.182-2.37.937-.562 2.045-.843 3.324-.843 1.278 0 2.386.28 3.323.843.938.563 1.662 1.353 2.174 2.37.517 1.017.775 2.201.775 3.554 0 1.352-.258 2.534-.775 3.545-.512 1.012-1.236 1.798-2.174 2.36-.937.563-2.045.845-3.323.845Zm.016-2.472c.694 0 1.273-.19 1.74-.57.465-.387.812-.904 1.039-1.552.233-.648.35-1.37.35-2.165 0-.801-.117-1.525-.35-2.173-.227-.654-.574-1.173-1.04-1.56-.466-.386-1.045-.58-1.739-.58-.71 0-1.3.194-1.772.58-.466.387-.816.907-1.049 1.56-.227.648-.34 1.372-.34 2.173 0 .796.113 1.517.34 2.165.233.648.583 1.165 1.049 1.551.471.38 1.062.571 1.772.571Zm13.733 2.446c-1.029 0-1.95-.264-2.762-.793-.812-.528-1.454-1.295-1.926-2.3-.471-1.006-.707-2.228-.707-3.665 0-1.455.238-2.682.716-3.682.483-1.006 1.133-1.764 1.951-2.276a5.016 5.016 0 0 1 2.736-.775c.767 0 1.398.13 1.892.392.495.255.887.565 1.176.929.29.358.515.696.674 1.014h.128v-6.529h3.093V28.5h-3.034v-2.063h-.187a5.235 5.235 0 0 1-.691 1.015c-.301.352-.698.653-1.193.903-.494.25-1.116.375-1.866.375Zm.86-2.531c.654 0 1.211-.176 1.671-.529.46-.358.81-.855 1.048-1.491.239-.636.358-1.378.358-2.224 0-.847-.119-1.583-.358-2.208-.233-.625-.579-1.11-1.039-1.457-.455-.347-1.015-.52-1.68-.52-.687 0-1.26.179-1.721.537-.46.358-.807.852-1.04 1.483-.233.63-.35 1.352-.35 2.165 0 .818.117 1.548.35 2.19.239.636.588 1.14 1.048 1.508.466.364 1.037.546 1.714.546Zm17.743-3.205V15.41h3.085V28.5h-2.992v-2.327h-.136a3.934 3.934 0 0 1-1.457 1.799c-.671.465-1.497.698-2.48.698-.858 0-1.617-.19-2.276-.57-.653-.387-1.165-.947-1.534-1.68-.369-.738-.554-1.63-.554-2.676V15.41h3.085v7.858c0 .83.227 1.489.682 1.977.455.489 1.051.733 1.79.733.454 0 .895-.11 1.321-.332a2.688 2.688 0 0 0 1.048-.989c.279-.443.418-.997.418-1.662Zm9.343-11.948V28.5h-3.085V11.046h3.085Zm6.939 17.718c-.829 0-1.576-.148-2.241-.443a3.656 3.656 0 0 1-1.568-1.33c-.381-.585-.571-1.306-.571-2.164 0-.739.136-1.35.409-1.833a3.173 3.173 0 0 1 1.116-1.159 5.638 5.638 0 0 1 1.594-.656 12.978 12.978 0 0 1 1.849-.332c.768-.08 1.39-.151 1.867-.213.477-.069.824-.17 1.04-.307.221-.142.332-.361.332-.657v-.05c0-.643-.19-1.14-.571-1.492-.381-.352-.929-.529-1.645-.529-.755 0-1.355.165-1.798.495-.438.33-.733.718-.886 1.167l-2.881-.409c.227-.795.602-1.46 1.125-1.994a4.899 4.899 0 0 1 1.917-1.21c.756-.273 1.591-.41 2.506-.41.631 0 1.259.075 1.884.222a5.3 5.3 0 0 1 1.713.733c.517.335.932.793 1.244 1.372.318.58.477 1.304.477 2.174V28.5h-2.966v-1.798h-.102a3.773 3.773 0 0 1-.792 1.022c-.336.313-.759.566-1.27.759-.506.188-1.1.281-1.782.281Zm.802-2.267c.619 0 1.156-.122 1.61-.366.455-.25.804-.58 1.049-.989.25-.409.375-.855.375-1.338v-1.543c-.097.08-.262.154-.495.222a6.997 6.997 0 0 1-.767.179c-.284.051-.565.097-.843.136l-.725.103c-.46.062-.872.164-1.236.306a2.06 2.06 0 0 0-.861.597c-.21.25-.315.574-.315.972 0 .568.208.997.622 1.287.415.29.943.434 1.586.434Zm9.213 2.003V15.41h2.991v2.18h.136c.239-.755.648-1.337 1.228-1.746a3.378 3.378 0 0 1 2.003-.622c.17 0 .36.008.571.025.215.011.394.031.537.06v2.838a3.26 3.26 0 0 0-.623-.12 5.711 5.711 0 0 0-.809-.06 3.12 3.12 0 0 0-1.517.367 2.68 2.68 0 0 0-1.049.997c-.255.427-.383.918-.383 1.475V28.5h-3.085Zm19.137-12.656c-.079-.745-.414-1.324-1.005-1.739-.586-.415-1.347-.622-2.284-.622-.659 0-1.225.1-1.696.298-.472.2-.833.469-1.083.81-.25.34-.378.73-.383 1.168 0 .363.082.678.247.945.17.268.4.495.69.682.29.182.611.336.963.46.353.126.708.23 1.066.316l1.636.409c.659.153 1.293.36 1.901.622a6.686 6.686 0 0 1 1.644.989c.489.398.875.878 1.16 1.44.284.563.426 1.222.426 1.977 0 1.023-.262 1.924-.784 2.702-.523.773-1.279 1.378-2.268 1.816-.982.431-2.173.647-3.571.647-1.357 0-2.536-.21-3.536-.63-.995-.42-1.773-1.035-2.336-1.841-.556-.807-.858-1.79-.903-2.95h3.111c.045.609.233 1.114.562 1.518.33.403.759.704 1.287.903a5.098 5.098 0 0 0 1.79.299c.687 0 1.29-.103 1.807-.307.522-.21.932-.5 1.227-.87.295-.375.446-.812.452-1.312-.006-.455-.139-.83-.401-1.125-.261-.301-.628-.551-1.099-.75a10.602 10.602 0 0 0-1.637-.546l-1.985-.511c-1.438-.37-2.574-.929-3.41-1.679-.829-.756-1.244-1.759-1.244-3.009 0-1.028.279-1.928.835-2.701.563-.773 1.327-1.372 2.293-1.799.966-.431 2.06-.647 3.281-.647 1.239 0 2.324.216 3.256.647.937.427 1.673 1.02 2.207 1.782.534.755.81 1.625.827 2.608h-3.043Zm9.049 4.986v7.67h-3.085V11.046h3.017v6.588h.154a3.782 3.782 0 0 1 1.423-1.748c.648-.431 1.472-.647 2.472-.647.909 0 1.701.19 2.377.57.676.381 1.199.938 1.569 1.671.375.733.562 1.628.562 2.685V28.5h-3.085v-7.858c0-.88-.227-1.565-.682-2.054-.449-.494-1.08-.741-1.892-.741a2.98 2.98 0 0 0-1.466.357 2.512 2.512 0 0 0-1.006 1.015c-.238.443-.358.98-.358 1.61Zm15.401 7.934c-.83 0-1.577-.148-2.242-.443a3.662 3.662 0 0 1-1.568-1.33c-.38-.585-.571-1.306-.571-2.164 0-.739.137-1.35.409-1.833a3.167 3.167 0 0 1 1.117-1.159 5.626 5.626 0 0 1 1.594-.656 12.953 12.953 0 0 1 1.849-.332c.767-.08 1.389-.151 1.867-.213.477-.069.823-.17 1.039-.307.222-.142.333-.361.333-.657v-.05c0-.643-.191-1.14-.571-1.492-.381-.352-.929-.529-1.645-.529-.756 0-1.355.165-1.799.495-.437.33-.732.718-.886 1.167l-2.881-.409c.228-.795.603-1.46 1.125-1.994a4.895 4.895 0 0 1 1.918-1.21c.756-.273 1.591-.41 2.506-.41.63 0 1.258.075 1.883.222a5.3 5.3 0 0 1 1.713.733 3.69 3.69 0 0 1 1.245 1.372c.318.58.477 1.304.477 2.174V28.5h-2.966v-1.798h-.102a3.777 3.777 0 0 1-.793 1.022c-.335.313-.758.566-1.27.759-.505.188-1.099.281-1.781.281Zm.801-2.267c.619 0 1.156-.122 1.611-.366a2.71 2.71 0 0 0 1.048-.989c.25-.409.375-.855.375-1.338v-1.543c-.096.08-.261.154-.494.222a6.997 6.997 0 0 1-.767.179c-.284.051-.566.097-.844.136l-.724.103a5.368 5.368 0 0 0-1.236.306 2.047 2.047 0 0 0-.861.597c-.21.25-.315.574-.315.972 0 .568.207.997.622 1.287.415.29.943.434 1.585.434Zm14.923 2.259c-1.306 0-2.429-.287-3.366-.861a5.742 5.742 0 0 1-2.156-2.378c-.5-1.017-.75-2.188-.75-3.511 0-1.33.255-2.503.767-3.52.511-1.023 1.233-1.818 2.164-2.387.938-.573 2.046-.86 3.324-.86 1.063 0 2.003.196 2.821.588.824.386 1.48.934 1.969 1.645.489.704.767 1.528.835 2.471h-2.949a2.816 2.816 0 0 0-.852-1.577c-.443-.426-1.037-.639-1.781-.639-.631 0-1.185.17-1.662.512-.477.335-.849.818-1.116 1.448-.262.631-.392 1.387-.392 2.267 0 .893.13 1.66.392 2.302.261.636.627 1.128 1.099 1.474.477.341 1.037.511 1.679.511.455 0 .861-.085 1.219-.255.363-.176.667-.43.912-.759.244-.33.412-.73.502-1.201h2.949c-.074.926-.346 1.747-.818 2.463-.471.71-1.113 1.267-1.926 1.67-.812.398-1.767.597-2.864.597Zm10.954-4.364-.008-3.724h.494l4.705-5.259h3.605l-5.787 6.443h-.639l-2.37 2.54Zm-2.812 4.108V11.046h3.085V28.5h-3.085Zm8.216 0-4.262-5.957 2.08-2.174 5.872 8.131h-3.69Zm11.537 0V11.046h6.682c1.261 0 2.31.198 3.145.596.841.392 1.469.929 1.884 1.61.42.683.63 1.455.63 2.319 0 .71-.136 1.318-.409 1.824a3.45 3.45 0 0 1-1.099 1.219 4.662 4.662 0 0 1-1.543.673v.17a3.78 3.78 0 0 1 1.781.571 3.96 3.96 0 0 1 1.407 1.45c.363.624.545 1.38.545 2.266 0 .904-.219 1.716-.656 2.438-.438.716-1.097 1.281-1.978 1.696-.88.415-1.988.622-3.323.622h-7.066Zm3.162-2.642h3.401c1.148 0 1.974-.219 2.48-.656.511-.444.767-1.012.767-1.705a2.607 2.607 0 0 0-1.474-2.386c-.472-.245-1.035-.367-1.688-.367h-3.486v5.114Zm0-7.39h3.128c.546 0 1.037-.099 1.474-.297a2.483 2.483 0 0 0 1.032-.861c.255-.375.383-.819.383-1.33 0-.676-.238-1.233-.716-1.67-.471-.438-1.173-.657-2.105-.657h-3.196v4.816Zm20.819 4.526V15.41h3.085V28.5h-2.991v-2.327h-.137a3.934 3.934 0 0 1-1.457 1.799c-.67.465-1.497.698-2.48.698-.858 0-1.616-.19-2.276-.57-.653-.387-1.164-.947-1.534-1.68-.369-.738-.554-1.63-.554-2.676V15.41h3.086v7.858c0 .83.227 1.489.681 1.977.455.489 1.052.733 1.79.733.455 0 .895-.11 1.321-.332a2.681 2.681 0 0 0 1.048-.989c.279-.443.418-.997.418-1.662Zm6.258 5.506V15.41h3.085V28.5h-3.085Zm1.551-14.949c-.489 0-.909-.162-1.261-.486-.353-.33-.529-.724-.529-1.184 0-.466.176-.861.529-1.185a1.78 1.78 0 0 1 1.261-.494c.494 0 .915.165 1.261.494.353.324.529.719.529 1.185 0 .46-.176.855-.529 1.184a1.779 1.779 0 0 1-1.261.486Zm7.792-2.505V28.5h-3.085V11.046h3.085Zm8.03 17.684c-1.028 0-1.948-.264-2.761-.793-.812-.528-1.454-1.295-1.926-2.3-.472-1.006-.707-2.228-.707-3.665 0-1.455.238-2.682.716-3.682.482-1.006 1.133-1.764 1.951-2.276a5.016 5.016 0 0 1 2.736-.775c.767 0 1.398.13 1.892.392.494.255.886.565 1.176.929.29.358.514.696.673 1.014h.128v-6.529h3.094V28.5h-3.034v-2.063h-.188a5.272 5.272 0 0 1-.69 1.015c-.301.352-.699.653-1.193.903-.494.25-1.117.375-1.867.375Zm.861-2.531c.654 0 1.211-.176 1.671-.529.46-.358.809-.855 1.048-1.491.239-.636.358-1.378.358-2.224 0-.847-.119-1.583-.358-2.208-.233-.625-.58-1.11-1.04-1.457-.454-.347-1.014-.52-1.679-.52-.687 0-1.261.179-1.721.537-.461.358-.807.852-1.04 1.483-.233.63-.35 1.352-.35 2.165 0 .818.117 1.548.35 2.19.239.636.588 1.14 1.048 1.508.466.364 1.037.546 1.713.546Zm15.194 2.557c-1.312 0-2.446-.273-3.4-.819a5.545 5.545 0 0 1-2.191-2.335c-.511-1.011-.767-2.201-.767-3.57 0-1.347.256-2.53.767-3.546.517-1.023 1.239-1.818 2.165-2.387.926-.573 2.014-.86 3.264-.86.807 0 1.568.13 2.284.392a5.157 5.157 0 0 1 1.909 1.193c.557.54.995 1.227 1.313 2.062.318.83.477 1.819.477 2.966v.946h-10.73v-2.08h7.773c-.006-.59-.134-1.116-.384-1.576a2.787 2.787 0 0 0-1.048-1.1c-.443-.266-.96-.4-1.551-.4-.631 0-1.185.154-1.662.46a3.181 3.181 0 0 0-1.117 1.194 3.44 3.44 0 0 0-.4 1.61v1.816c0 .761.139 1.414.418 1.96.278.54.667.954 1.167 1.244.5.284 1.085.426 1.756.426.449 0 .855-.062 1.219-.187a2.71 2.71 0 0 0 .946-.571c.267-.25.468-.56.605-.93l2.88.325a4.485 4.485 0 0 1-1.039 1.994c-.506.563-1.154 1-1.944 1.313-.789.306-1.693.46-2.71.46Zm8.431-.256V15.41h2.992v2.18h.136c.239-.755.648-1.337 1.227-1.746a3.38 3.38 0 0 1 2.003-.622c.171 0 .361.008.571.025.216.011.395.031.537.06v2.838a3.23 3.23 0 0 0-.622-.12 5.714 5.714 0 0 0-.81-.06c-.562 0-1.068.123-1.517.367a2.684 2.684 0 0 0-1.048.997c-.256.427-.383.918-.383 1.475V28.5h-3.086Zm19.863-9.63-2.813.306a2.266 2.266 0 0 0-.418-.801 2.068 2.068 0 0 0-.784-.605c-.329-.154-.733-.23-1.21-.23-.642 0-1.182.139-1.619.417-.432.279-.645.64-.639 1.083-.006.38.133.69.417.929.29.238.767.434 1.432.588l2.233.477c1.239.267 2.159.69 2.761 1.27.608.58.915 1.338.921 2.276-.006.823-.247 1.55-.725 2.181-.471.625-1.128 1.114-1.968 1.466-.841.352-1.807.529-2.898.529-1.602 0-2.892-.335-3.869-1.006-.978-.676-1.56-1.616-1.748-2.821l3.009-.29c.136.591.426 1.037.869 1.338.443.301 1.02.452 1.73.452.733 0 1.321-.15 1.765-.452.448-.3.673-.673.673-1.116 0-.375-.145-.685-.435-.93-.284-.244-.727-.431-1.329-.562l-2.233-.468c-1.256-.262-2.185-.702-2.787-1.322-.603-.625-.901-1.414-.895-2.369-.006-.807.213-1.506.656-2.096.449-.597 1.071-1.057 1.867-1.381.801-.33 1.724-.494 2.769-.494 1.535 0 2.742.326 3.623.98.886.653 1.434 1.537 1.645 2.65Z" fill="#936400"/>
</svg>
