<svg width="48" height="48" fill="none" xmlns="http://www.w3.org/2000/svg">
  <g clip-path="url('#clip0_4003_1073')">
    <path d="M24 0C10.71 0 0 10.71 0 24s10.71 24 24 24 24-10.71 24-24S37.29 0 24 0Zm12.923 24.736c0 .742-.187 1.298-.368 2.033l-2.401 7.017c-.555 1.846-2.402 3.137-4.428 3.137H18.462c-4.06 0-7.385-3.324-7.385-7.385v-8.12c0-1.846.923-3.512 2.401-4.615l12.18-9.23s2.59.547 2.59 2.949c0 .923-3.325 6.093-3.325 6.093h8.308a3.7 3.7 0 0 1 3.692 3.693v4.428Z" fill="#936400"/>
  </g>
  <defs>
    <clipPath id="clip0_4003_1073">
      <path fill="#fff" d="M0 0h48v48H0z"/>
    </clipPath>
  </defs>
</svg>
