<svg width="48" height="48" fill="none" xmlns="http://www.w3.org/2000/svg">
  <g clip-path="url('#clip0_8013_645')">
    <path d="M23.827-.058c-.08.015-.159.036-.231.058a1.85 1.85 0 0 0-1.442 1.846v5.539a1.857 1.857 0 0 0 .916 1.622 1.864 1.864 0 0 0 1.86 0c.577-.339.923-.959.916-1.622V1.846A1.835 1.835 0 0 0 25.269.44a1.846 1.846 0 0 0-1.442-.498ZM7.96 6.462A1.834 1.834 0 0 0 6.52 7.76a1.854 1.854 0 0 0 .52 1.875l3.922 3.923c.447.548 1.161.8 1.854.642a1.856 1.856 0 0 0 1.384-1.385 1.854 1.854 0 0 0-.642-1.854L9.634 7.038a1.853 1.853 0 0 0-1.5-.576h-.173Zm31.5 0a1.855 1.855 0 0 0-1.096.576l-3.923 3.923a1.855 1.855 0 0 0-.642 1.854c.159.685.7 1.226 1.385 1.385a1.854 1.854 0 0 0 1.853-.642l3.923-3.923a1.846 1.846 0 0 0-1.5-3.173ZM24 13.154c-5.928 0-10.73 4.803-10.73 10.73 0 6.087 5.249 9.628 5.249 12.75v.75a1.4 1.4 0 0 0 1.385 1.385h8.192a1.4 1.4 0 0 0 1.385-1.384v-.75c0-3.13 5.25-6.563 5.25-12.75 0-5.928-4.803-10.731-10.731-10.731Zm0 3.577c1.356 0 2.618.382 3.692 1.038-.13-.007-.274-.057-.404-.057-5.04 0-9.115 4.081-9.115 9.057 0 .31.029.62.058.923-.808-1.132-1.327-2.553-1.327-4.038 0-3.844 3.194-6.923 7.096-6.923ZM1.327 22.154A1.868 1.868 0 0 0-.26 24.26a1.868 1.868 0 0 0 2.106 1.586h5.538a1.857 1.857 0 0 0 1.623-.916 1.864 1.864 0 0 0 0-1.86 1.857 1.857 0 0 0-1.623-.916H1.327Zm38.769 0a1.868 1.868 0 0 0-1.587 2.106 1.868 1.868 0 0 0 2.106 1.586h5.539a1.857 1.857 0 0 0 1.622-.916 1.864 1.864 0 0 0 0-1.86 1.857 1.857 0 0 0-1.622-.916h-6.058ZM12.058 33.865a1.855 1.855 0 0 0-1.097.577l-3.923 3.923a1.854 1.854 0 0 0-.642 1.854c.16.685.7 1.226 1.385 1.384a1.855 1.855 0 0 0 1.853-.642l3.923-3.922a1.841 1.841 0 0 0 .419-2.041 1.85 1.85 0 0 0-1.745-1.133h-.174Zm23.307 0a1.834 1.834 0 0 0-1.442 1.298 1.855 1.855 0 0 0 .52 1.876l3.922 3.922a1.853 1.853 0 0 0 1.854.642 1.857 1.857 0 0 0 1.384-1.384 1.855 1.855 0 0 0-.642-1.854l-3.923-3.923a1.845 1.845 0 0 0-1.327-.577h-.346Zm-15.519 6.75A1.39 1.39 0 0 0 18.461 42v2.77a1.39 1.39 0 0 0 1.385 1.384H21c.606 1.06 1.695 1.788 3 1.788s2.394-.728 3-1.788h1.154a1.39 1.39 0 0 0 1.384-1.385V42a1.39 1.39 0 0 0-1.384-1.385h-8.308Z" fill="#936400"/>
  </g>
  <defs>
    <clipPath id="clip0_8013_645">
      <path fill="#fff" d="M0 0h48v48H0z"/>
    </clipPath>
  </defs>
</svg>
