<svg width="49" height="48" fill="none" xmlns="http://www.w3.org/2000/svg">
  <g clip-path="url('#clip0_8013_629')">
    <path d="M31.02 9.346c-.527.036-1.046.216-1.616.52C26.85 11.22 17.59 16.492 17.577 16.5c-1.313.772-1.753 2.495-.98 3.808a2.784 2.784 0 0 0 3.576 1.096c.13-.065 4.623-2.366 6.692-3.462 2.207-1.168 3.577.173 3.577.173s7.97 7.948 10.212 10.097c1.457 1.399 3.454.713 4.096.634.642-.08 3.75-.692 3.75-.692V13.615s-4.76 1.111-7.558 1.674c-.858.172-1.904-.404-1.904-.404s-2.322-1.984-4.903-4.154c-1.306-1.104-2.236-1.45-3.116-1.385Zm-12.462.173c-2.943 0-9.058 4.039-9.058 4.039s-1.73 1.117-4.212.115L.5 12v16.615s1.37.426 2.596.924c.281-.787.707-1.537 1.327-2.135 2.034-1.94 5.416-1.962 7.27-.058.555.577.951 1.32 1.153 2.077.75.23 1.414.591 1.962 1.154a4.554 4.554 0 0 1 1.153 2.02 4.63 4.63 0 0 1 1.962 1.21 4.812 4.812 0 0 1 1.212 2.25c.778.231 1.507.628 2.076 1.212 1.111 1.14 1.508 2.712 1.27 4.212 0 0 .67.786 1.096 1.211a2.133 2.133 0 0 0 3 0 2.133 2.133 0 0 0 0-3c-.029-.029-3.043-3.072-2.77-3.346.275-.274 4.09 3.685 4.097 3.693a2.076 2.076 0 0 0 2.942 0 2.08 2.08 0 0 0 .058-2.885c-.015-.015-3.447-3.707-3.23-3.923.244-.245 4.377 4.038 4.384 4.038A2.13 2.13 0 0 0 35 37.212c.808-.808.772-2.113 0-2.943-.007-.007-3.39-3.649-3.173-3.865.216-.216 3.743 3.281 3.75 3.288.822.822 2.12.822 2.942 0a2.133 2.133 0 0 0 0-3c-.014-.014-4.6-4.536-9.23-9.173 0 0-1.342-1.442-3.174-.634-1.283.562-2.964 1.377-4.211 1.961-1.37.721-2.582.923-2.827.923a4.781 4.781 0 0 1-4.789-4.788c0-1.717.895-3.245 2.25-4.096 1.912-1.327 6.347-3.635 6.347-3.635S21.5 9.52 18.558 9.52ZM8.115 28.154a3.11 3.11 0 0 0-2.077.865c-1.182 1.14-1.983 3.238-.923 4.443 1.053 1.204 2.3.44 3.231.23-.26.916-1.067 1.803-.115 3 .944 1.205 2.3.44 3.23.231-.26.916-1.03 1.882-.115 3 .916 1.118 2.466.483 3.462.173-.383.988-1.226 2.092-.173 3.289s3.483.62 4.673-.52c1.182-1.132 1.276-2.956.23-4.038-.72-.736-1.78-.887-2.769-.577.39-.988.282-2.127-.461-2.885-.664-.685-1.666-.843-2.597-.634.26-.916.152-1.904-.519-2.596-.663-.678-1.666-.844-2.596-.635.26-.916.144-1.904-.52-2.596-.526-.541-1.225-.772-1.96-.75Z" fill="#936400"/>
  </g>
  <defs>
    <clipPath id="clip0_8013_629">
      <path fill="#fff" transform="translate(.5)" d="M0 0h48v48H0z"/>
    </clipPath>
  </defs>
</svg>
