<svg width="48" height="48" fill="none" xmlns="http://www.w3.org/2000/svg">
  <path d="M41.322 25.348c-.144-.043-1.038-.454-.476-2.185h-.014c1.457-1.514 2.567-3.966 2.567-6.375 0-3.706-2.423-5.646-5.243-5.646-2.82 0-5.228 1.94-5.228 5.646 0 2.416 1.103 4.883 2.567 6.397.21.57.202 1.01.094 1.334 1.507 1.298 3.692 3.98 2.942 9.087-.728-2.323-1.824-4.428-3.187-6.022-1.342-1.825-4.522-3.476-7.442-4.457-.174-.057-1.277-.562-.585-2.69h-.014c1.796-1.867 3.159-4.889 3.159-7.86 0-4.565-2.986-6.96-6.462-6.96-3.476 0-6.447 2.395-6.447 6.96 0 2.985 1.363 6.014 3.159 7.882.706 1.875-.548 2.575-.815 2.668-1.882.693-3.923 1.68-5.46 2.806-.086.057-.158.13-.237.187a10.873 10.873 0 0 0-1.479 1.392v.007c-1.399 1.594-2.51 3.736-3.252 6.087-.75-5.106 1.428-7.789 2.942-9.08-.108-.324-.115-.764.094-1.341 1.464-1.514 2.567-3.974 2.567-6.397 0-3.7-2.408-5.646-5.228-5.646S4.6 13.089 4.6 16.788c0 2.416 1.11 4.86 2.567 6.383h-.014c.562 1.73-.332 2.134-.476 2.185C3.583 26.394.1 28.356.1 30.368v4.795c0 2.661 8.87 7.169 23.935 7.169S47.9 37.824 47.9 35.163v-4.795c0-2.02-3.476-3.974-6.577-5.02Z" fill="#936400"/>
</svg>
