<svg width="48" height="48" fill="none" xmlns="http://www.w3.org/2000/svg">
  <path d="M20.308 7.73A16.196 16.196 0 0 0 4.038 24c0 9.043 7.226 16.27 16.27 16.27 9.043 0 16.269-7.227 16.269-16.27S29.351 7.73 20.307 7.73Zm9.404.231c5.538 3.325 9.23 9.21 9.23 16.039 0 6.83-3.692 12.901-9.23 16.038 8.12-.923 14.25-7.73 14.25-16.038s-6.31-15.115-14.25-16.04Zm-10.673 6.462h2.365v2.02c1.659 0 2.596.381 3.52.75l-.75 2.768c-.556-.367-1.674-.923-3.52-.923-1.478 0-2.02.714-2.02 1.27 0 .735.924 1.283 2.77 2.019 2.77.923 3.865 2.228 3.865 4.442.368 2.214-1.096 4.075-3.865 4.443v2.365h-2.365v-2.192c-1.66 0-3.174-.556-4.097-.924l.75-2.769c.924.555 2.387 1.096 3.866 1.096 1.29 0 2.25-.519 2.25-1.442 0-.923-.75-1.521-2.596-2.077-2.582-.923-4.27-1.983-4.27-4.384 0-2.034 1.515-3.714 4.097-4.27v-2.192Z" fill="#936400"/>
</svg>
