<svg width="48" height="48" fill="none" xmlns="http://www.w3.org/2000/svg">
  <path d="M43.63 9.281a2.01 2.01 0 0 0-1.435-.678c-4.233-.108-9.599-4.637-13.14-6.418C26.863 1.096 25.421.368 24.332.18a2.647 2.647 0 0 0-.664 0c-1.089.195-2.531.916-4.716 2.012-3.548 1.774-8.906 6.303-13.147 6.411a2.01 2.01 0 0 0-1.435.678 2.18 2.18 0 0 0-.54 1.544c.915 18.504 7.55 29.956 19.196 36.605.303.173.635.267.974.267.332 0 .67-.094.974-.267 11.646-6.649 18.28-18.1 19.19-36.605a2.142 2.142 0 0 0-.534-1.544Zm-9.26 7.277L24.54 31.06c-.352.52-.9.866-1.449.866-.555 0-1.16-.296-1.55-.686l-6.93-6.93a1.214 1.214 0 0 1 0-1.709l1.716-1.716a1.214 1.214 0 0 1 1.709 0l4.507 4.507 7.825-11.553a1.211 1.211 0 0 1 1.68-.317l1.998 1.355c.555.375.7 1.133.324 1.68Z" fill="#936400"/>
</svg>
