<svg width="49" height="48" fill="none" xmlns="http://www.w3.org/2000/svg">
  <path d="M27.4 1.925c1.622 2.698-.217 6.073-1.587 9.015-1.183 2.531-1.003 5.401 2.163 5.034 3.815-.44 5.358-.743 8.604-.967 3.28-.223 4.312 1.118 4.312 2.365 0 2.013-.67 2.164-.67 2.936 0 .771 2.516.274 2.516 2.805s-1.969 2.452-1.969 3.159c0 .706 1.919 1.024 1.919 3.05 0 2.027-2.582 2.293-2.582 3.13 0 .836.837 1.053.837 2.308 0 1.254-2.618 4.01-11.85 4.01-15.727 0-13.867-3.765-21.208-3.765V21.079c3.822 0 3.613-3.382 6.252-5.964 2.661-2.603 7.753-8.502 8.755-13.154.663-3.115 3.512-1.701 4.507-.036Z" fill="#936400"/>
</svg>
